<svg fill="currentColor" width="383" height="292" viewBox="0 0 383 292" xmlns="http://www.w3.org/2000/svg"><path d="M336.764.945H45.354C20.346.945 0 20.484 0 44.5v203.117c0 24.016 20.346 43.555 45.354 43.555h291.41c25.008 0 45.353-19.539 45.353-43.555V44.5c0-24.016-20.345-43.555-45.353-43.555Zm11.485 265.41H35.08c-3.95 0-7.415-2.747-7.415-5.88V57.36l141.637 128.224c2.904 2.63 6.597 4.077 10.399 4.077l23.92.001c3.8 0 7.495-1.448 10.4-4.078L355.666 57.355v203.122c0 3.13-3.468 5.878-7.417 5.878Zm-157.001-103.2-164-138.926h328l-164 138.926Z"/></svg>