<svg fill="currentColor" height="585.143" viewBox="0 0 438.857 438.857" width="585.143" xmlns="http://www.w3.org/2000/svg"><path d="M372.855 376.168c42.563-41.676 66-97.336 66-156.738 0-59.41-23.437-115.082-66-156.742C331.57 22.27 277.078 0 219.43 0 161.785 0 107.293 22.27 66.008 62.688 23.438 104.355 0 160.02 0 219.43c0 59.39 23.438 115.062 66.008 156.738 14.965 14.645 31.824 27.027 50.11 36.816.007.008.027.016.042.024.055.031.113.039.168.066.063.031.117.07.18.106a214.04 214.04 0 0 0 6.73 3.445 209.364 209.364 0 0 0 11.707 5.316c.032.012.063.032.094.043 0 .004.004.008.004.008h.012c.011.004.023.012.035.016.445.187.984.379 1.781.656l.484.176c.008.004.016 0 .024.004 2.648 1.07 5.14 2.039 7.512 2.926.273.097.5.16.77.257 3.21 1.176 6.273 2.23 9.222 3.145 1.133.344 2.305.633 3.472.91l1.86.473h.015l.098.027c4.98 1.395 9.957 2.766 15.063 3.816.093.016.18.047.27.067.964.195 1.952.308 2.929.465 1.398.222 2.785.476 4.187.668l.493.07 5.703.875c2.722.457 5.445.914 8.222 1.191 7.43.746 14.91 1.121 22.235 1.121 7.328 0 14.812-.375 22.238-1.12.004-.005.008-.005.012-.005 2.707-.277 5.37-.714 8.027-1.16l6.453-.988c2.375-.324 4.742-.652 7.055-1.117 5.23-1.063 10.32-2.48 15.41-3.91l1.875-.473c1.168-.277 2.328-.555 3.445-.902 2.555-.79 5.164-1.664 7.953-2.664.149-.055.293-.102.446-.157 2.972-1.074 6.168-2.3 9.773-3.742.551-.187 1.113-.383 1.653-.61.003 0 .003-.003.007-.003l.035-.012c3.657-1.531 7.329-3.23 11.028-5.023.305-.149.605-.266.91-.414a233.695 233.695 0 0 0 4.824-2.47c.719-.37 1.418-.694 2.14-1.077 2.028-1.086 3.97-2.324 5.962-3.473 11.5-6.629 22.457-14.183 32.613-22.812a220.209 220.209 0 0 0 11.566-10.555zm-25.656-1.61a203.258 203.258 0 0 1-6.543 5.172 193.435 193.435 0 0 1-4.324 3.211c-2.148 1.543-4.344 3.012-6.55 4.465-1.532 1.012-3.048 2.047-4.614 3.02-2.664 1.652-5.39 3.203-8.129 4.73-1.094.61-2.144 1.27-3.25 1.86-.008.007-.02.004-.031.011-.29.153-.578.293-.867.446a187.349 187.349 0 0 1-6.262 3.148c-2.043.992-4.094 1.89-6.145 2.8-1.441.634-2.824 1.29-4.324 1.911l-1.445.527c-.008 0-.012.008-.02.008l-.015.008c-6.118 2.473-11.235 4.32-16.11 5.82-.004.004-.008.008-.015.008v.004c-.75.23-1.52.41-2.285.59-.77.187-1.54.363-2.305.57.344-.355.672-.762 1.012-1.12.992-1.048 1.964-2.15 2.937-3.25a132.386 132.386 0 0 0 3.133-3.661 146.833 146.833 0 0 0 2.793-3.54 158.311 158.311 0 0 0 3.055-4.112 163.543 163.543 0 0 0 5.602-8.383 164.5 164.5 0 0 0 2.44-3.996c.985-1.66 1.946-3.367 2.899-5.098.762-1.379 1.52-2.762 2.262-4.184.953-1.828 1.879-3.71 2.8-5.609.696-1.437 1.395-2.863 2.075-4.336.925-2.023 1.82-4.113 2.714-6.207.618-1.457 1.247-2.887 1.848-4.379.906-2.242 1.77-4.558 2.633-6.879.543-1.457 1.098-2.879 1.625-4.363.11-.309.227-.598.336-.906 1.305.695 2.648 1.336 3.933 2.054 1.204.676 2.407 1.356 3.59 2.051 4.211 2.477 8.344 5.047 12.332 7.79.137.097.286.179.422.277 4.102 2.836 8.035 5.859 11.883 8.972 1.066.864 2.11 1.75 3.156 2.633 1.168.988 2.262 2.047 3.403 3.059-.645.574-1.266 1.183-1.918 1.75a190.355 190.355 0 0 1-3.73 3.129zm-237.422 13.32c-2.515-1.64-5.007-3.315-7.449-5.073a191.382 191.382 0 0 1-3.95-2.938 199.83 199.83 0 0 1-6.726-5.316 192.742 192.742 0 0 1-3.754-3.149c-.644-.558-1.25-1.156-1.882-1.718 1.136-1.008 2.222-2.063 3.386-3.043 1.059-.895 2.114-1.793 3.192-2.668 3.836-3.102 7.758-6.118 11.844-8.946.171-.12.359-.226.53-.347 3.958-2.72 8.052-5.27 12.227-7.723a203.61 203.61 0 0 1 3.598-2.055c1.285-.722 2.633-1.359 3.934-2.058.109.308.226.593.336.898.542 1.535 1.12 3.008 1.68 4.512.839 2.246 1.671 4.492 2.55 6.668.64 1.594 1.316 3.129 1.98 4.683.844 1.98 1.692 3.961 2.57 5.875.723 1.579 1.473 3.106 2.22 4.641a223.03 223.03 0 0 0 2.64 5.297c.785 1.508 1.59 2.973 2.395 4.43a185.845 185.845 0 0 0 2.777 4.882c.832 1.41 1.676 2.782 2.531 4.141a170.638 170.638 0 0 0 2.907 4.484 166.726 166.726 0 0 0 2.671 3.856c.996 1.39 2 2.738 3.02 4.066.93 1.211 1.863 2.41 2.812 3.567a132.767 132.767 0 0 0 3.125 3.652c.973 1.102 1.946 2.2 2.934 3.242.344.364.672.774 1.016 1.13a61.752 61.752 0 0 0-2.301-.571c-.758-.18-1.527-.36-2.262-.59l-.035-.012a172.335 172.335 0 0 1-8.438-2.87c-2.43-.891-4.94-1.848-7.71-2.966l-2.09-.761c-.004 0-.012 0-.016-.004-3.273-1.371-6.55-2.887-9.809-4.465-2.14-1.035-4.3-2.117-6.484-3.262-.203-.105-.406-.203-.613-.312-.008-.012-.016-.012-.035-.02-.008-.004-.02-.004-.028-.008l-.203-.101c-.039-.02-.062-.035-.097-.051-3.88-2.078-7.672-4.313-11.403-6.64-1.215-.755-2.394-1.57-3.59-2.356zM143.238 98.68c.684-1.864 1.375-3.711 2.082-5.52.516-1.308 1.04-2.601 1.567-3.883a221.217 221.217 0 0 1 2.226-5.199 194.957 194.957 0 0 1 1.625-3.629 187.01 187.01 0 0 1 2.504-5.168c.512-1.035 1.02-2.093 1.543-3.105a180.348 180.348 0 0 1 3.457-6.317c.27-.468.524-.968.79-1.43 1.429-2.449 2.894-4.8 4.382-7.074.531-.812 1.078-1.566 1.617-2.355 1-1.469 2.008-2.922 3.032-4.312.625-.848 1.265-1.657 1.902-2.473.96-1.238 1.93-2.453 2.91-3.621a109.182 109.182 0 0 1 5.023-5.574c.672-.696 1.34-1.391 2.016-2.051a87.647 87.647 0 0 1 3.3-3.035c.606-.54 1.208-1.102 1.817-1.61a75.023 75.023 0 0 1 4.403-3.394c.277-.2.546-.434.824-.625a65.978 65.978 0 0 1 5.328-3.34c.52-.293 1.047-.527 1.57-.8 1.285-.677 2.57-1.321 3.871-1.884.657-.281 1.317-.52 1.977-.773a50.428 50.428 0 0 1 3.555-1.23 46.5 46.5 0 0 1 2.097-.575c.543-.137 1.086-.223 1.63-.34V119.91c-.243-.012-.49-.012-.731-.023-5.149-.254-10.266-.742-15.36-1.395-1.125-.144-2.25-.308-3.375-.472-5.156-.754-10.293-1.649-15.382-2.81-.352-.081-.7-.187-1.051-.269-4.844-1.132-9.649-2.492-14.418-3.996-1.04-.328-2.082-.636-3.114-.984a202.96 202.96 0 0 1-14.492-5.438c-.343-.144-.683-.304-1.027-.453.156-.46.305-.945.465-1.406.469-1.348.953-2.664 1.437-3.984zm89.063-78.403c1.187.356 2.367.778 3.55 1.23.66.255 1.325.493 1.981.778 1.297.559 2.582 1.203 3.867 1.875.524.278 1.051.512 1.57.805a65.978 65.978 0 0 1 5.329 3.34c.28.195.55.43.832.629a75.97 75.97 0 0 1 4.39 3.386c.614.512 1.22 1.078 1.828 1.618a90.757 90.757 0 0 1 3.293 3.03c.676.66 1.344 1.356 2.016 2.052a109.264 109.264 0 0 1 3 3.23c.68.766 1.356 1.547 2.027 2.344a126.028 126.028 0 0 1 2.903 3.613c.64.824 1.281 1.637 1.91 2.488a133.245 133.245 0 0 1 3.035 4.313c.535.781 1.078 1.535 1.606 2.34a162.487 162.487 0 0 1 4.386 7.082c.274.468.528.976.801 1.449a189.26 189.26 0 0 1 3.441 6.289c.532 1.02 1.04 2.086 1.559 3.133.844 1.691 1.68 3.39 2.492 5.148.551 1.188 1.09 2.41 1.63 3.63a220.553 220.553 0 0 1 3.796 9.1 245.78 245.78 0 0 1 2.062 5.466c.489 1.34.985 2.671 1.458 4.039.16.453.304.93.46 1.39-.34.14-.671.301-1.011.442a204.108 204.108 0 0 1-14.532 5.457c-1.015.336-2.035.64-3.054.96-4.793 1.512-9.617 2.88-14.485 4.016-.34.082-.671.184-1.007.258-5.094 1.164-10.235 2.059-15.403 2.813-1.117.164-2.238.328-3.363.472-5.094.653-10.211 1.14-15.363 1.395-.246.015-.493.011-.735.023V19.363c.543.117 1.09.203 1.63.34.702.176 1.402.363 2.1.574zm63.297 319.95a258.76 258.76 0 0 1-2.051 5.437 228.157 228.157 0 0 1-3.8 9.106c-.54 1.218-1.075 2.445-1.63 3.632a191.411 191.411 0 0 1-2.492 5.153c-.52 1.043-1.031 2.113-1.562 3.133a175.713 175.713 0 0 1-3.438 6.285c-.27.472-.527.984-.8 1.449a164.106 164.106 0 0 1-4.387 7.086c-.528.805-1.07 1.555-1.602 2.336a140.14 140.14 0 0 1-3.04 4.32c-.628.848-1.265 1.656-1.901 2.477a123.166 123.166 0 0 1-2.918 3.629 108.928 108.928 0 0 1-5.036 5.582c-.66.687-1.32 1.375-1.992 2.027a91.527 91.527 0 0 1-3.308 3.05c-.61.536-1.211 1.098-1.82 1.606a77.13 77.13 0 0 1-4.423 3.414c-.27.192-.53.414-.796.602a65.478 65.478 0 0 1-5.336 3.344c-.512.289-1.032.52-1.547.789-1.293.68-2.586 1.328-3.89 1.894-.653.281-1.31.516-1.966.766a48.337 48.337 0 0 1-3.57 1.238c-.695.211-1.39.395-2.086.57-.543.137-1.09.223-1.637.34v-100.55c.25.011.5.007.75.019 5.14.258 10.254.742 15.336 1.394 1.133.145 2.262.31 3.39.473 5.161.754 10.298 1.649 15.388 2.813.336.078.671.18 1.007.257 4.872 1.137 9.696 2.504 14.489 4.016 1.015.32 2.03.625 3.043.961a202.417 202.417 0 0 1 14.539 5.457c.34.14.672.3 1.011.445-.156.453-.3.926-.457 1.375-.476 1.38-.972 2.723-1.468 4.075zm-86.95 78.925c-.695-.175-1.39-.359-2.082-.57a50.31 50.31 0 0 1-3.574-1.238c-.652-.25-1.308-.485-1.96-.766-1.305-.566-2.602-1.215-3.9-1.894-.51-.27-1.03-.5-1.538-.79a65.537 65.537 0 0 1-5.34-3.343c-.266-.188-.524-.406-.79-.598a79.236 79.236 0 0 1-4.433-3.418c-.605-.508-1.203-1.066-1.804-1.601a88.475 88.475 0 0 1-3.32-3.055c-.669-.652-1.329-1.34-1.993-2.027a106.317 106.317 0 0 1-5.031-5.582c-.988-1.172-1.961-2.391-2.926-3.637-.633-.813-1.27-1.617-1.894-2.465-1.028-1.387-2.032-2.844-3.036-4.316-.535-.786-1.082-1.54-1.613-2.352a159.987 159.987 0 0 1-4.383-7.078c-.27-.461-.523-.961-.789-1.43a183.733 183.733 0 0 1-3.457-6.312c-.523-1.012-1.027-2.07-1.543-3.106-.847-1.699-1.687-3.406-2.504-5.172-.55-1.187-1.09-2.414-1.629-3.632a246.079 246.079 0 0 1-2.218-5.184 280.35 280.35 0 0 1-1.575-3.906 269.165 269.165 0 0 1-2.07-5.489c-.488-1.332-.976-2.66-1.45-4.02-.16-.456-.308-.933-.464-1.394.344-.144.688-.308 1.031-.453 4.79-2.008 9.621-3.82 14.496-5.441 1.032-.344 2.07-.653 3.106-.977 4.77-1.504 9.574-2.863 14.418-4 .355-.082.703-.187 1.055-.27 5.085-1.16 10.214-2.054 15.37-2.804 1.133-.168 2.266-.332 3.403-.477 5.082-.652 10.187-1.136 15.324-1.394.25-.012.5-.008.75-.02v100.551c-.547-.113-1.094-.203-1.637-.34zM131.691 299.38a357.845 357.845 0 0 1-3.8-21.035c-.18-1.188-.434-2.332-.602-3.528-1.176-8.316-2.047-16.793-2.687-25.351-.192-2.578-.254-5.2-.399-7.797-.238-4.344-.355-8.715-.457-13.098h86.54v72.02c-.368.015-.727.078-1.095.094-5.52.257-11.007.742-16.464 1.421-1.211.149-2.418.336-3.63.504-5.245.743-10.468 1.637-15.648 2.766-.414.09-.836.152-1.254.246-5.468 1.227-10.886 2.734-16.27 4.39-1.21.372-2.421.747-3.624 1.141-5.34 1.746-10.645 3.657-15.887 5.82-.09.04-.18.063-.266.098-.902-3.304-1.824-6.59-2.628-9.976-.614-2.57-1.27-5.102-1.829-7.715zm-7.09-109.98c.641-8.563 1.512-17.044 2.688-25.368.168-1.172.414-2.297.59-3.46 1.082-7.157 2.344-14.204 3.816-21.102.555-2.606 1.207-5.13 1.817-7.692.808-3.394 1.734-6.687 2.636-10 .086.04.176.063.266.098 5.246 2.168 10.55 4.078 15.895 5.824 1.199.39 2.402.766 3.605 1.137 5.387 1.656 10.805 3.164 16.274 4.39.425.094.859.16 1.285.25 5.175 1.13 10.394 2.02 15.636 2.762 1.204.172 2.403.356 3.61.504a213.94 213.94 0 0 0 16.465 1.422c.37.016.73.078 1.101.094v72.027h-86.539c.102-4.383.219-8.754.461-13.101.14-2.594.203-5.207.395-7.786zm121.54-52.657c1.207-.148 2.406-.332 3.609-.504 5.234-.738 10.45-1.629 15.617-2.754.434-.097.875-.16 1.309-.257 5.445-1.223 10.836-2.723 16.195-4.368 1.258-.386 2.512-.777 3.762-1.187 5.277-1.723 10.52-3.61 15.703-5.746.121-.055.25-.09.375-.14.894 3.288 1.812 6.554 2.613 9.921.617 2.594 1.281 5.148 1.844 7.785 1.465 6.88 2.723 13.91 3.805 21.043.175 1.18.43 2.317.593 3.5 1.18 8.32 2.047 16.805 2.688 25.363.191 2.579.254 5.196.398 7.79.239 4.347.36 8.718.457 13.097H228.57v-72.027c.371-.016.735-.078 1.102-.094a213.872 213.872 0 0 0 16.469-1.422zm68.113 112.723c-.64 8.555-1.508 17.031-2.684 25.348-.172 1.207-.425 2.363-.61 3.562a355.986 355.986 0 0 1-3.792 20.98c-.563 2.645-1.227 5.208-1.848 7.81-.8 3.358-1.715 6.616-2.61 9.898-.124-.051-.253-.086-.374-.137-5.184-2.14-10.426-4.024-15.703-5.75-1.25-.41-2.508-.801-3.762-1.188-5.36-1.644-10.75-3.144-16.195-4.363-.434-.098-.875-.164-1.313-.262-5.168-1.12-10.375-2.015-15.613-2.754-1.203-.171-2.402-.355-3.61-.504a214.242 214.242 0 0 0-16.476-1.421c-.367-.016-.727-.079-1.094-.094v-72.02h86.54c-.098 4.38-.22 8.75-.458 13.094-.144 2.598-.207 5.219-.398 7.8zm51.934 107.383c-1.446-1.297-2.981-2.493-4.461-3.75-1.325-1.125-2.641-2.262-3.997-3.36a218.493 218.493 0 0 0-11.601-8.77c-.547-.382-1.059-.8-1.606-1.179-4.566-3.148-9.293-6.101-14.12-8.926-1.313-.765-2.665-1.472-3.993-2.215-2.21-1.23-4.379-2.52-6.64-3.683.171-.613.289-1.27.46-1.883a346.245 346.245 0 0 0 4.825-19.7c.246-1.152.46-2.316.695-3.472 1.438-7.058 2.734-14.21 3.785-21.504.008-.054.02-.105.028-.16 1.054-7.344 1.851-14.808 2.507-22.328.11-1.238.23-2.461.325-3.703.566-7.227.937-14.512 1.128-21.836.016-.606.079-1.2.094-1.809h86.75c-2.137 48.102-21.129 93.075-54.18 128.278zm-32.57-146.563c-.016-.605-.079-1.2-.095-1.805a420.324 420.324 0 0 0-1.128-21.851c-.094-1.23-.215-2.441-.325-3.664-.656-7.54-1.457-15.024-2.511-22.387-.004-.004-.004-.012-.004-.015-1.063-7.383-2.38-14.618-3.832-21.758-.22-1.082-.422-2.168-.653-3.242a341.418 341.418 0 0 0-4.902-20c-.148-.547-.254-1.133-.41-1.68 2.21-1.137 4.324-2.395 6.484-3.594 1.403-.781 2.828-1.527 4.207-2.332 4.817-2.816 9.528-5.762 14.078-8.898.52-.36 1.004-.754 1.516-1.114a214.227 214.227 0 0 0 11.723-8.86c1.324-1.07 2.609-2.179 3.906-3.28 1.496-1.274 3.055-2.485 4.515-3.797 33.051 35.207 52.043 80.172 54.18 128.277zM352.93 69.102c-1.18 1.043-2.309 2.136-3.512 3.152-1.035.875-2.063 1.75-3.117 2.601-3.84 3.11-7.77 6.125-11.86 8.958-.218.152-.453.289-.675.44-3.891 2.673-7.922 5.18-12.028 7.599-1.242.73-2.5 1.437-3.761 2.144-1.258.707-2.575 1.332-3.848 2.012-.106-.309-.227-.594-.332-.899-.555-1.562-1.14-3.058-1.711-4.586-.832-2.23-1.664-4.468-2.535-6.628-.64-1.59-1.317-3.122-1.977-4.676-.855-2-1.71-4.004-2.597-5.938-.711-1.547-1.446-3.039-2.176-4.543a214.29 214.29 0 0 0-2.719-5.445c-.762-1.461-1.543-2.875-2.324-4.293a191.68 191.68 0 0 0-2.867-5.043 178.707 178.707 0 0 0-2.457-4.004 167.154 167.154 0 0 0-3.012-4.648 162.215 162.215 0 0 0-2.578-3.703 147.615 147.615 0 0 0-3.153-4.243c-.89-1.16-1.793-2.3-2.703-3.41a126.302 126.302 0 0 0-3.254-3.8 122.6 122.6 0 0 0-2.843-3.13c-.407-.43-.801-.91-1.211-1.331 29.148 8.144 56.18 22.875 79.25 43.414zm-188.953-42.09a122.29 122.29 0 0 0-2.91 3.199 138.937 138.937 0 0 0-3.13 3.652c-.964 1.18-1.921 2.39-2.87 3.63a153.33 153.33 0 0 0-5.731 7.964 174.42 174.42 0 0 0-2.793 4.309 190.278 190.278 0 0 0-2.656 4.332c-.907 1.53-1.79 3.109-2.672 4.699a203.474 203.474 0 0 0-2.492 4.598c-.88 1.687-1.73 3.43-2.582 5.18-.77 1.573-1.54 3.14-2.286 4.765-.863 1.883-1.695 3.828-2.527 5.777-.68 1.59-1.371 3.164-2.031 4.797-.863 2.145-1.688 4.363-2.516 6.578-.574 1.54-1.164 3.047-1.722 4.621-.106.301-.223.586-.332.89-1.313-.702-2.668-1.347-3.965-2.073a196.628 196.628 0 0 1-3.535-2.02c-4.207-2.472-8.336-5.043-12.32-7.781-.15-.106-.305-.195-.454-.297-4.101-2.84-8.039-5.863-11.89-8.98-1.051-.852-2.083-1.727-3.114-2.598-1.207-1.016-2.336-2.11-3.511-3.152C109 48.566 136.028 33.844 165.18 25.688c-.41.417-.797.894-1.203 1.324zM72.68 82.008c1.437 1.293 2.968 2.484 4.441 3.734 1.344 1.14 2.672 2.29 4.043 3.395a214.5 214.5 0 0 0 11.399 8.613c.613.434 1.195.906 1.816 1.336 4.535 3.129 9.238 6.066 14.039 8.875 1.363.793 2.766 1.531 4.148 2.3 2.176 1.212 4.305 2.477 6.532 3.622-.157.55-.262 1.137-.414 1.687a344.951 344.951 0 0 0-4.899 19.989c-.23 1.082-.433 2.175-.656 3.261-1.445 7.11-2.754 14.317-3.813 21.664-.007.04-.015.079-.02.118-1.054 7.34-1.85 14.8-2.507 22.316-.11 1.25-.23 2.488-.328 3.738a414.111 414.111 0 0 0-1.125 21.79c-.016.617-.082 1.222-.094 1.84h-86.75c2.133-48.106 21.125-93.071 54.188-128.278zm32.562 146.562c.012.618.078 1.223.094 1.84.187 7.309.559 14.578 1.125 21.79.098 1.253.219 2.488.328 3.738.656 7.515 1.453 14.98 2.508 22.32.004.035.012.07.02.11 1.054 7.35 2.367 14.558 3.816 21.671.219 1.082.422 2.176.652 3.254a342.959 342.959 0 0 0 4.903 20c.152.543.257 1.129.41 1.672-2.227 1.144-4.356 2.41-6.532 3.62-1.382.77-2.789 1.509-4.152 2.306-4.805 2.808-9.508 5.746-14.047 8.879-.617.425-1.191.894-1.8 1.324a216.53 216.53 0 0 0-11.395 8.613c-1.387 1.121-2.734 2.285-4.09 3.441-1.46 1.243-2.98 2.422-4.402 3.7-33.063-35.215-52.055-80.176-54.188-128.278zm0 0"/></svg>