<svg fill="currentColor" xmlns="http://www.w3.org/2000/svg" viewBox="0 0 511.856 511.856" style="enable-background:new 0 0 511.856 511.856" xml:space="preserve"><path d="M498.445 255.88 263.778 25.48c-4.032-3.974-11.669-3.974-15.701 0L13.41 255.88c-2.88 2.804-3.605 6.874-1.92 10.35 1.707 3.495 5.547 5.741 9.771 5.741h53.333v201.6c0 5.3 4.779 9.6 10.667 9.6h106.667c5.888 0 10.667-4.3 10.667-9.6v-144h106.667v144c0 5.3 4.779 9.6 10.667 9.6h106.667c5.888 0 10.667-4.3 10.667-9.6v-201.6h53.333c4.224 0 8.064-2.246 9.771-5.741 1.684-3.476.958-7.546-1.922-10.35z"/></svg>