<svg fill="currentColor" width="512" height="512" viewBox="0 0 512 512" xmlns="http://www.w3.org/2000/svg"><path d="M160.008 423h-70V197h70v226Zm6.984-298.004c0-22.629-18.36-40.996-40.976-40.996C103.312 84 85 102.367 85 124.996 85 147.633 103.313 166 126.016 166c22.617 0 40.976-18.367 40.976-41.004ZM422 298.664C422 237.996 409.184 193 338.312 193c-34.054 0-56.914 17.031-66.246 34.742H272V197h-68v226h68V310.79c0-29.388 7.48-57.856 43.906-57.856 35.93 0 37.094 33.605 37.094 59.722V423h69V298.664ZM512 452V60c0-33.086-26.914-60-60-60H60C26.914 0 0 26.914 0 60v392c0 33.086 26.914 60 60 60h392c33.086 0 60-26.914 60-60ZM460.167 31C471.653 31 481 40.347 481 51.833v408.334c0 11.486-9.347 20.833-20.833 20.833H51.833C40.347 481 31 471.653 31 460.167V51.833C31 40.347 40.347 31 51.833 31h408.334Z"/></svg>