<svg fill="currentColor" stroke="none" width="99" height="103" viewBox="0 0 99 103" xmlns="http://www.w3.org/2000/svg"><path d="M30.466 6.925c4.56 0 8.743 1.23 12.562 3.71 1.967-.487 4.317-.737 7.025-.737 11.207 0 20.752 4.082 28.638 12.233C86.578 30.288 90.52 40.176 90.52 51.8c0 2.839-.31 5.806-.923 8.9C91.199 64.29 92 67.932 92 71.63c0 6.683-2.307 12.403-6.934 17.15-4.62 4.757-10.127 7.145-16.544 7.145-3.82 0-7.51-.987-11.08-2.973-3.2.494-5.665.743-7.39.743-11.213 0-20.794-4.081-28.736-12.239C13.375 73.3 9.398 63.411 9.398 51.8c0-2.723.31-5.495.923-8.346C8.111 39.744 7 35.607 7 31.032c0-6.677 2.283-12.361 6.836-17.052 4.554-4.703 10.103-7.055 16.63-7.055M49.5 69.35c-2.233 0-4.01-.337-5.362-1.013-1.447-.785-2.448-1.571-3.009-2.352-1.337-2.474-2.068-3.769-2.178-3.874-.446-1.345-1.111-2.474-2.002-3.37-1.116-.776-2.233-1.18-3.355-1.18-1.562 0-2.844.504-3.85 1.517-1.006 1.007-1.507 2.192-1.507 3.537 0 2.136.792 4.433 2.354 6.907 1.447 2.241 3.46 4.101 6.028 5.551 3.564 1.915 7.975 2.873 13.222 2.873 4.345 0 8.195-.676 11.55-2.02 3.35-1.572 5.803-3.537 7.364-5.895 1.672-2.585 2.508-5.396 2.508-8.424 0-2.463-.44-4.715-1.33-6.735-.897-1.683-2.289-3.2-4.192-4.539a32.11 32.11 0 0 0-6.358-3.033c-3.789-1.129-6.479-1.86-8.035-2.192a32.1 32.1 0 0 1-2.931-.592c-1.172-.276-1.925-.47-2.256-.586-1.336-.443-2.288-.842-2.849-1.174a5.8 5.8 0 0 1-2.177-1.86c-.567-.553-.837-1.289-.837-2.191 0-1.345.782-2.518 2.343-3.537C44.1 34.044 46.212 33.48 49 33.48c2.794 0 4.862.51 6.199 1.511 1.447 1.245 2.508 2.646 3.173 4.218.897 1.46 1.623 2.468 2.178 3.027.892.68 1.953 1.018 3.18 1.018 1.451 0 2.739-.564 3.844-1.693 1.012-1.002 1.513-2.236 1.513-3.703 0-1.118-.397-2.585-1.177-4.378-.892-1.345-2.069-2.69-3.515-4.035-1.562-1.24-3.625-2.308-6.199-3.204-2.667-.792-5.522-1.18-8.535-1.18-4.015 0-7.59.61-10.714 1.855-3.113 1.107-5.517 2.795-7.189 5.042-1.678 2.247-2.514 4.826-2.514 7.749 0 2.916.787 5.446 2.344 7.582 1.902 2.242 4.015 3.808 6.357 4.71 2.684 1.24 5.918 2.253 9.713 3.033.666.116 1.486.31 2.426.587.946.288 1.782.509 2.514.68.72.156 1.309.305 1.754.416 1.562.57 2.843 1.345 3.845 2.363 1.006.78 1.507 1.96 1.507 3.537 0 1.915-.892 3.48-2.674 4.72-2.002 1.346-4.515 2.015-7.529 2.015M32.258 0C23.407 0 15.465 3.376 9.3 9.769 3.223 16.045 0 24.076 0 32.97c0 4.605.858 8.96 2.563 12.995a45.391 45.391 0 0 0-.385 5.878c0 13.494 4.692 25.166 13.926 34.686 9.312 9.586 20.724 14.445 33.902 14.445 1.397 0 3.008-.11 4.928-.332A30.733 30.733 0 0 0 66.737 103c8.734 0 16.638-3.398 22.864-9.835C95.743 86.839 99 78.775 99 69.858c0-3.747-.61-7.466-1.826-11.091.325-2.363.49-4.682.49-6.924 0-13.488-4.654-25.15-13.822-34.663C74.575 7.577 63.19 2.706 50.006 2.706a44.88 44.88 0 0 0-4.406.21C41.444.98 36.977 0 32.257 0Z"/></svg>